<svg xmlns="http://www.w3.org/2000/svg" width="28" height="20" viewBox="0 0 28 20" role="img" aria-hidden="true"><rect width="28" height="20" rx="2.5" fill="#fff"/><path d="M0 0h28v2H0zm0 4h28v2H0zm0 4h28v2H0zm0 4h28v2H0zm0 4h28v2H0z" fill="#b22234"/><rect width="12" height="10.8" fill="#3c3b6e"/><g fill="#fff"><circle cx="2" cy="2" r=".6"/><circle cx="5" cy="2" r=".6"/><circle cx="8" cy="2" r=".6"/><circle cx="11" cy="2" r=".6"/><circle cx="3.5" cy="4.3" r=".6"/><circle cx="6.5" cy="4.3" r=".6"/><circle cx="9.5" cy="4.3" r=".6"/><circle cx="2" cy="6.6" r=".6"/><circle cx="5" cy="6.6" r=".6"/><circle cx="8" cy="6.6" r=".6"/><circle cx="11" cy="6.6" r=".6"/><circle cx="3.5" cy="8.9" r=".6"/><circle cx="6.5" cy="8.9" r=".6"/><circle cx="9.5" cy="8.9" r=".6"/></g><rect x="0.5" y="0.5" width="27" height="19" rx="3" fill="none" stroke="rgba(255,255,255,.16)"/></svg>